<svg width="34" height="34" viewBox="0 0 34 34" fill="none" xmlns="http://www.w3.org/2000/svg">
<path d="M5.66683 26.9166C4.1085 26.9166 2.8335 25.5 2.8335 23.9416V5.80831C2.8335 4.10831 4.1085 2.83331 5.66683 2.83331H28.3335C29.8918 2.83331 31.1668 4.24998 31.1668 5.80831V23.9416C31.1668 25.6416 29.8918 26.9166 28.3335 26.9166" stroke="white" stroke-width="1.5" stroke-linecap="round" stroke-linejoin="round"/>
<path d="M5.6665 26.9166H18.4165" stroke="white" stroke-width="1.5" stroke-linecap="round" stroke-linejoin="round"/>
<path d="M28.3335 26.9166H24.0835" stroke="white" stroke-width="1.5" stroke-linecap="round" stroke-linejoin="round"/>
<path d="M12.75 8.50002H21.25" stroke="white" stroke-width="1.5" stroke-linecap="round" stroke-linejoin="round"/>
<path d="M25.6417 12.75H8.3584" stroke="white" stroke-width="1.5" stroke-linecap="round" stroke-linejoin="round"/>
<path d="M8.5 19.8333H12.75" stroke="white" stroke-width="1.5" stroke-linecap="round" stroke-linejoin="round"/>
<path d="M24.0833 24.3669V31.1669" stroke="white" stroke-width="1.5" stroke-linecap="round" stroke-linejoin="round"/>
<path d="M18.4168 24.3669V31.1669" stroke="white" stroke-width="1.5" stroke-linecap="round" stroke-linejoin="round"/>
<path fill-rule="evenodd" clip-rule="evenodd" d="M21.25 25.5C23.5972 25.5 25.5 23.5972 25.5 21.25C25.5 18.9028 23.5972 17 21.25 17C18.9028 17 17 18.9028 17 21.25C17 23.5972 18.9028 25.5 21.25 25.5Z" stroke="white" stroke-width="1.5" stroke-linecap="round" stroke-linejoin="round"/>
<path d="M18.4165 31.1667L21.2498 29.75" stroke="white" stroke-width="1.5" stroke-linecap="round" stroke-linejoin="round"/>
<path d="M24.0833 31.1667L21.25 29.75" stroke="white" stroke-width="1.5" stroke-linecap="round" stroke-linejoin="round"/>
</svg>
