<svg width="34" height="34" viewBox="0 0 34 34" fill="none" xmlns="http://www.w3.org/2000/svg">
<path fill-rule="evenodd" clip-rule="evenodd" d="M16.291 24.0834C16.291 19.8334 19.8327 16.2917 24.0827 16.2917C28.3327 16.2917 31.8743 19.8334 31.8743 24.0834C31.8743 28.3334 28.3327 31.875 24.0827 31.875C19.8327 31.875 16.291 28.3334 16.291 24.0834ZM29.7493 24.083C29.7493 20.9664 27.1993 18.4164 24.0826 18.4164C20.9659 18.4164 18.4159 20.9664 18.4159 24.083C18.4159 27.1997 20.9659 29.7497 24.0826 29.7497C27.1993 29.7497 29.7493 27.1997 29.7493 24.083Z" fill="white"/>
<path d="M24.0824 21.25V26.9167" stroke="white" stroke-width="1.5" stroke-linecap="round" stroke-linejoin="round"/>
<path d="M22.666 22.6667L24.0827 21.25" stroke="white" stroke-width="1.5" stroke-linecap="round" stroke-linejoin="round"/>
<path d="M22.666 26.9166H25.4993" stroke="white" stroke-width="1.5" stroke-linecap="round" stroke-linejoin="round"/>
<path d="M2.83301 21.2497L12.4663 12.4664" stroke="white" stroke-width="1.5" stroke-linecap="round" stroke-linejoin="round"/>
<path d="M11.333 24.0833H5.66634C4.10801 24.0833 2.83301 22.8083 2.83301 21.25V7.08333C2.83301 5.525 4.10801 4.25 5.66634 4.25H26.9163C28.4747 4.25 29.7497 5.525 29.7497 7.08333V12.75" stroke="white" stroke-width="1.5" stroke-linecap="round" stroke-linejoin="round"/>
<path d="M29.1828 5.38361L18.9828 13.3169C17.4245 14.4503 15.2995 14.5919 13.7411 13.3169L3.25781 5.24194" stroke="white" stroke-width="1.5" stroke-linecap="round" stroke-linejoin="round"/>
</svg>
