<svg width="48" height="48" viewBox="0 0 48 48" fill="none" xmlns="http://www.w3.org/2000/svg">
<path fill-rule="evenodd" clip-rule="evenodd" d="M39 31.9995C41.7614 31.9995 44 29.7609 44 26.9995C44 24.2381 41.7614 21.9995 39 21.9995C36.2386 21.9995 34 24.2381 34 26.9995C34 29.7609 36.2386 31.9995 39 31.9995Z" stroke="white" stroke-width="3" stroke-linecap="round" stroke-linejoin="round"/>
<path d="M38.9998 32.4006C38.9998 38.8006 33.7998 44.0006 27.3998 44.0006C20.9998 44.0006 15.7998 38.8006 15.7998 32.4006" stroke="white" stroke-width="3" stroke-linecap="round" stroke-linejoin="round"/>
<path d="M16 32.4002V30.0002" stroke="white" stroke-width="3" stroke-linecap="round" stroke-linejoin="round"/>
<path d="M28 18.0002C28 24.6002 22.6 30.0002 16 30.0002C9.4 30.0002 4 24.6002 4 18.0002" stroke="white" stroke-width="3" stroke-linecap="round" stroke-linejoin="round"/>
<path d="M28 18.0002V10.0002C28 7.80024 26.2 6.00024 24 6.00024H20" stroke="white" stroke-width="3" stroke-linecap="round" stroke-linejoin="round"/>
<path d="M4 18.0007V10.0007C4 7.80073 5.8 6.00073 8 6.00073H12" stroke="white" stroke-width="3" stroke-linecap="round" stroke-linejoin="round"/>
<path d="M12 4.00073V8.00073" stroke="white" stroke-width="3" stroke-linecap="round" stroke-linejoin="round"/>
<path d="M20 4.00073V8.00073" stroke="white" stroke-width="3" stroke-linecap="round" stroke-linejoin="round"/>
</svg>
