<svg width="34" height="34" viewBox="0 0 34 34" fill="none" xmlns="http://www.w3.org/2000/svg">
<path d="M22.6667 20.8256C22.6667 20.8256 20.825 22.6672 17.7083 22.6672C14.5917 22.6672 12.75 20.8256 12.75 20.8256" stroke="white" stroke-width="1.5" stroke-linecap="round" stroke-linejoin="round"/>
<path fill-rule="evenodd" clip-rule="evenodd" d="M17.9917 2.83331C13.175 2.83331 8.78333 5.38331 6.375 9.63331C4.10833 13.8833 4.10833 18.9833 6.65833 23.0916L4.25 29.8916L11.05 27.4833C15.8667 30.4583 21.9583 30.0333 26.35 26.4916C30.7417 22.95 32.4417 17.1416 30.6 11.7583C28.6167 6.37498 23.5167 2.83331 17.9917 2.83331V2.83331Z" stroke="white" stroke-width="1.5" stroke-linecap="round" stroke-linejoin="round"/>
<path d="M22.3836 12.042C22.2419 12.042 22.1003 12.1836 22.1003 12.467C22.1003 12.6086 22.2419 12.7503 22.5253 12.7503C22.6669 12.7503 22.8086 12.6086 22.8086 12.467C22.8086 12.1836 22.6669 12.042 22.3836 12.042" stroke="white" stroke-width="1.5" stroke-linecap="round" stroke-linejoin="round"/>
<path d="M12.8914 12.042C12.7497 12.042 12.6081 12.1836 12.6081 12.467C12.6081 12.6086 12.7497 12.7503 13.0331 12.7503C13.1747 12.7503 13.3164 12.6086 13.3164 12.467C13.3164 12.1836 13.1747 12.042 12.8914 12.042" stroke="white" stroke-width="1.5" stroke-linecap="round" stroke-linejoin="round"/>
</svg>
